<svg xmlns="http://www.w3.org/2000/svg" viewBox="62 21 250 250" role="img" aria-label="Construções Rorato">
  <g transform="translate(55 42)">
    <circle cx="90" cy="88" r="70" fill="#0f5fc3"/>
    <circle cx="90" cy="88" r="56" fill="#fff"/>
    <path d="M50 37h126c18 0 32 14 32 32v78h-52l-36-34H88c-19 0-35-15-35-34V37z" fill="#1684dc"/>
    <path d="M69 38h95c14 0 25 11 25 25v16c0 9-7 16-16 16H88c-12 0-22 10-22 22 0 19 15 35 34 35h94l28 27H92c-50 0-90-40-90-90 0-23 9-44 24-60l43 39z" fill="#075bb8"/>
    <path d="M28 31c-16 16-26 38-26 62 0 48 39 87 87 87 20 0 39-7 54-18H96c-37 0-67-30-67-67 0-12 3-23 8-33z" fill="#0a3d92" opacity=".85"/>
  </g>
</svg>
